<svg xmlns="http://www.w3.org/2000/svg" xmlns:xlink="http://www.w3.org/1999/xlink" xmlns:sketch="http://www.bohemiancoding.com/sketch/ns" viewBox="0 0 91 91" version="1.1" x="0px" y="0px"><title>rect7642</title><desc>Created with Sketch.</desc><g stroke="none" stroke-width="1" fill="none" fill-rule="evenodd" sketch:type="MSPage"><path d="M0.1842,11.72 L11.4342,11.72 L11.4342,0.47 L0.1842,0.47 L0.1842,11.72 Z M11.4342,11.72 L22.6842,11.72 L22.6842,0.47 L11.4342,0.47 L11.4342,11.72 Z M11.4342,22.97 L22.6842,22.97 L22.6842,11.72 L11.4342,11.72 L11.4342,22.97 Z M0.1842,22.97 L11.4342,22.97 L11.4342,11.72 L0.1842,11.72 L0.1842,22.97 Z M0.1842,45.47 L11.4342,45.47 L11.4342,34.22 L0.1842,34.22 L0.1842,45.47 Z M0.1842,56.72 L11.4342,56.72 L11.4342,45.47 L0.1842,45.47 L0.1842,56.72 Z M11.4342,56.72 L22.6842,56.72 L22.6842,45.47 L11.4342,45.47 L11.4342,56.72 Z M11.4342,45.47 L22.6842,45.47 L22.6842,34.22 L11.4342,34.22 L11.4342,45.47 Z M11.4342,79.22 L22.6842,79.22 L22.6842,67.97 L11.4342,67.97 L11.4342,79.22 Z M0.1842,79.22 L11.4342,79.22 L11.4342,67.97 L0.1842,67.97 L0.1842,79.22 Z M0.1842,90.47 L11.4342,90.47 L11.4342,79.22 L0.1842,79.22 L0.1842,90.47 Z M11.4342,90.47 L22.6842,90.47 L22.6842,79.22 L11.4342,79.22 L11.4342,90.47 Z M33.9342,79.22 L45.1842,79.22 L45.1842,67.97 L33.9342,67.97 L33.9342,79.22 Z M33.9342,90.47 L45.1842,90.47 L45.1842,79.22 L33.9342,79.22 L33.9342,90.47 Z M45.1842,90.47 L56.4342,90.47 L56.4342,79.22 L45.1842,79.22 L45.1842,90.47 Z M45.1842,79.22 L56.4342,79.22 L56.4342,67.97 L45.1842,67.97 L45.1842,79.22 Z M45.1842,56.72 L56.4342,56.72 L56.4342,45.47 L45.1842,45.47 L45.1842,56.72 Z M33.9342,56.72 L45.1842,56.72 L45.1842,45.47 L33.9342,45.47 L33.9342,56.72 Z M33.9342,45.47 L45.1842,45.47 L45.1842,34.22 L33.9342,34.22 L33.9342,45.47 Z M45.1842,45.47 L56.4342,45.47 L56.4342,34.22 L45.1842,34.22 L45.1842,45.47 Z M67.6842,79.22 L78.9342,79.22 L78.9342,67.97 L67.6842,67.97 L67.6842,79.22 Z M67.6842,90.47 L78.9342,90.47 L78.9342,79.22 L67.6842,79.22 L67.6842,90.47 Z M78.9342,90.47 L90.1842,90.47 L90.1842,79.22 L78.9342,79.22 L78.9342,90.47 Z M78.9342,79.22 L90.1842,79.22 L90.1842,67.97 L78.9342,67.97 L78.9342,79.22 Z M67.6842,56.72 L78.9342,56.72 L78.9342,45.47 L67.6842,45.47 L67.6842,56.72 Z M67.6842,45.47 L78.9342,45.47 L78.9342,34.22 L67.6842,34.22 L67.6842,45.47 Z M78.9342,45.47 L90.1842,45.47 L90.1842,34.22 L78.9342,34.22 L78.9342,45.47 Z M78.9342,56.72 L90.1842,56.72 L90.1842,45.47 L78.9342,45.47 L78.9342,56.72 Z M78.9342,22.97 L90.1842,22.97 L90.1842,11.72 L78.9342,11.72 L78.9342,22.97 Z M67.6842,22.97 L78.9342,22.97 L78.9342,11.72 L67.6842,11.72 L67.6842,22.97 Z M67.6842,11.72 L78.9342,11.72 L78.9342,0.47 L67.6842,0.47 L67.6842,11.72 Z M78.9342,11.72 L90.1842,11.72 L90.1842,0.47 L78.9342,0.47 L78.9342,11.72 Z M45.1842,11.72 L56.4342,11.72 L56.4342,0.47 L45.1842,0.47 L45.1842,11.72 Z M45.1842,22.97 L56.4342,22.97 L56.4342,11.72 L45.1842,11.72 L45.1842,22.97 Z M33.9342,22.97 L45.1842,22.97 L45.1842,11.72 L33.9342,11.72 L33.9342,22.97 Z M33.9342,11.72 L45.1842,11.72 L45.1842,0.47 L33.9342,0.47 L33.9342,11.72 Z" fill="#FFFFFF" sketch:type="MSShapeGroup"/></g></svg>